<?xml version="1.0" encoding="iso-8859-1"?>
<!-- Generator: Adobe Illustrator 25.0.0, SVG Export Plug-In . SVG Version: 6.00 Build 0)  -->
<svg version="1.1" id="Layer_1" xmlns="http://www.w3.org/2000/svg" xmlns:xlink="http://www.w3.org/1999/xlink" x="0px" y="0px"
	 viewBox="0 0 283.46 283.46" style="enable-background:new 0 0 283.46 283.46;" xml:space="preserve">
<g>
	<defs>
		<rect id="SVGID_1_" width="283.46" height="283.46"/>
	</defs>
	<clipPath id="SVGID_2_">
		<use xlink:href="#SVGID_1_"  style="overflow:visible;"/>
	</clipPath>
	<path style="clip-path:url(#SVGID_2_);fill:#007AC9;" d="M-0.002,248.028c0,19.488,15.945,35.434,35.434,35.434h212.597
		c19.489,0,35.434-15.946,35.434-35.434V35.43c0-19.488-15.945-35.432-35.434-35.432H35.432c-19.489,0-35.434,15.944-35.434,35.432
		V248.028z"/>
</g>
<g>
	<defs>
		<rect id="SVGID_3_" width="283.46" height="283.46"/>
	</defs>
	<clipPath id="SVGID_4_">
		<use xlink:href="#SVGID_3_"  style="overflow:visible;"/>
	</clipPath>
	<path style="clip-path:url(#SVGID_4_);fill:#FFFFFF;" d="M225.143,169.73c-1.062,0-2.107,0.066-3.137,0.183l-17.044-61.595
		c9.511-4.316,16.129-13.887,16.129-25.011c0-15.167-12.295-27.462-27.462-27.462c-12.479,0-23.008,8.328-26.349,19.727
		l-76.207-9.964c-0.372-14.843-12.511-26.763-27.444-26.763c-15.166,0-27.461,12.295-27.461,27.462
		c0,15.166,12.295,27.461,27.461,27.461c2.712,0,5.329-0.4,7.804-1.132l14.173,29.827c-7.231,4.947-11.977,13.258-11.977,22.68
		c0,9.066,4.396,17.103,11.17,22.103l-12.422,23.878c-2.748-0.924-5.687-1.431-8.748-1.431c-15.166,0-27.461,12.294-27.461,27.461
		c0,15.166,12.295,27.461,27.461,27.461c14.867,0,26.967-11.816,27.44-26.568l107.671-13.309
		c3.282,11.496,13.856,19.914,26.403,19.914c15.167,0,27.462-12.294,27.462-27.46C252.605,182.025,240.31,169.73,225.143,169.73
		 M213.81,172.179c-4.989,2.264-9.181,5.972-12.038,10.595l-74.018-31.055c0.518-2.108,0.798-4.309,0.798-6.576
		c0-4.123-0.914-8.03-2.542-11.538l47.428-31.693c5.017,5.444,12.205,8.856,20.191,8.856c1.061,0,2.107-0.067,3.136-0.184
		L213.81,172.179z M79.113,88.985c5.169-3.536,9.063-8.792,10.866-14.944l76.207,9.965c0.097,3.864,0.989,7.529,2.524,10.838
		l-47.428,31.692c-5.017-5.443-12.206-8.855-20.192-8.855c-2.712,0-5.33,0.399-7.804,1.132L79.113,88.985z M92.342,171.172
		c2.749,0.924,5.688,1.432,8.748,1.432c9.877,0,18.533-5.217,23.372-13.043l74.018,31.054c-0.45,1.83-0.713,3.731-0.776,5.684
		L90.031,209.607c-1.685-5.908-5.293-11.001-10.11-14.558L92.342,171.172z"/>
</g>
</svg>
